<?xml version="1.0" encoding="UTF-8" standalone="no"?>
<!-- Created with Inkscape (http://www.inkscape.org/) -->

<svg
   xmlns:dc="http://purl.org/dc/elements/1.1/"
   xmlns:cc="http://creativecommons.org/ns#"
   xmlns:rdf="http://www.w3.org/1999/02/22-rdf-syntax-ns#"
   xmlns:svg="http://www.w3.org/2000/svg"
   xmlns="http://www.w3.org/2000/svg"
   xmlns:sodipodi="http://sodipodi.sourceforge.net/DTD/sodipodi-0.dtd"
   xmlns:inkscape="http://www.inkscape.org/namespaces/inkscape"
   width="65"
   height="65"
   viewBox="0 0 17.197916 17.197916"
   version="1.1"
   id="svg5129"
   inkscape:version="0.92.4 (5da689c313, 2019-01-14)"
   sodipodi:docname="Boutique.svg">
  <defs
     id="defs5123" />
  <sodipodi:namedview
     id="base"
     pagecolor="#ffffff"
     bordercolor="#666666"
     borderopacity="1.0"
     inkscape:pageopacity="0.0"
     inkscape:pageshadow="2"
     inkscape:zoom="7.9195959"
     inkscape:cx="30.213363"
     inkscape:cy="29.142453"
     inkscape:document-units="px"
     inkscape:current-layer="layer1"
     showgrid="true"
     units="px"
     inkscape:window-width="1440"
     inkscape:window-height="877"
     inkscape:window-x="1016"
     inkscape:window-y="-8"
     inkscape:window-maximized="1">
    <inkscape:grid
       type="xygrid"
       id="grid5131" />
  </sodipodi:namedview>
  <metadata
     id="metadata5126">
    <rdf:RDF>
      <cc:Work
         rdf:about="">
        <dc:format>image/svg+xml</dc:format>
        <dc:type
           rdf:resource="http://purl.org/dc/dcmitype/StillImage" />
        <dc:title />
      </cc:Work>
    </rdf:RDF>
  </metadata>
  <g
     inkscape:label="Calque 1"
     inkscape:groupmode="layer"
     id="layer1"
     transform="translate(0,-279.80208)">
    <path
       style="fill:none;stroke:#ffffff;stroke-width:0.92604163;stroke-linecap:butt;stroke-linejoin:miter;stroke-opacity:1;fill-opacity:1;stroke-miterlimit:4;stroke-dasharray:none"
       d="m 6.6145831,282.44791 c 0,0 1.3229166,0 1.3229166,1.32292 v 2.64583 c 0,0 0,1.32292 -1.3229167,1.32292 H 3.9687498 c -1.3229166,0 -1.3229166,-1.32292 -1.3229166,-1.32292 v -2.64583 c 0,-1.32292 1.3229166,-1.32292 1.3229166,-1.32292 h 2.6458333"
       id="path5744"
       inkscape:connector-curvature="0" />
    <path
       style="fill:none;stroke:#ffffff;stroke-width:0.92604163;stroke-linecap:butt;stroke-linejoin:miter;stroke-opacity:1;fill-opacity:1;stroke-miterlimit:4;stroke-dasharray:none"
       d="m 13.229166,282.44791 c 0,0 1.322917,0 1.322917,1.32292 v 2.64583 c 0,0 0,1.32292 -1.322917,1.32292 h -2.645833 c -1.3229165,0 -1.3229165,-1.32292 -1.3229165,-1.32292 v -2.64583 c 0,-1.32292 1.3229165,-1.32292 1.3229165,-1.32292 h 2.645833"
       id="path5744-6"
       inkscape:connector-curvature="0" />
    <path
       style="fill:#ffffff;fill-opacity:1;stroke:#ffffff;stroke-width:0.92604163;stroke-linecap:butt;stroke-linejoin:miter;stroke-opacity:1;stroke-miterlimit:4;stroke-dasharray:none"
       d="m 6.6145831,289.0625 c 0,0 1.3229166,0 1.3229166,1.32292 v 2.64583 c 0,0 0,1.32292 -1.3229169,1.32292 h -2.645833 c -1.3229167,0 -1.3229167,-1.32292 -1.3229167,-1.32292 v -2.64583 c 0,-1.32292 1.3229167,-1.32292 1.3229167,-1.32292 h 2.6458333"
       id="path5744-1"
       inkscape:connector-curvature="0" />
    <path
       style="fill:none;fill-opacity:1;stroke:#ffffff;stroke-width:0.92604163;stroke-linecap:butt;stroke-linejoin:miter;stroke-opacity:1;stroke-miterlimit:4;stroke-dasharray:none"
       d="m 13.229166,289.0625 c 0,0 1.322917,0 1.322917,1.32292 v 2.64583 c 0,0 0,1.32292 -1.322917,1.32292 h -2.645833 c -1.3229167,0 -1.3229167,-1.32292 -1.3229167,-1.32292 v -2.64583 c 0,-1.32292 1.3229167,-1.32292 1.3229167,-1.32292 h 2.645833"
       id="path5744-0"
       inkscape:connector-curvature="0" />
  </g>
</svg>
